<?xml version="1.0" encoding="utf-8"?>
<!-- Generator: Adobe Illustrator 26.0.3, SVG Export Plug-In . SVG Version: 6.00 Build 0)  -->
<svg version="1.1" id="Layer_1" xmlns="http://www.w3.org/2000/svg" xmlns:xlink="http://www.w3.org/1999/xlink" x="0px" y="0px"
	 viewBox="0 0 1500 1500" style="enable-background:new 0 0 1500 1500;" xml:space="preserve">
<style type="text/css">
	.st0{display:none;}
	.st1{display:inline;fill:url(#SVGID_1_);}
	.st2{display:inline;fill:url(#SVGID_00000055673996974458752500000003455128239862762428_);}
	.st3{display:inline;fill:url(#SVGID_00000134949218388973047060000012760877429542512270_);}
	.st4{display:inline;fill:url(#SVGID_00000150073631025125043600000007419692130179507101_);}
	.st5{fill:#89DB3A;}
	.st6{fill:url(#SVGID_00000100355399316202476300000009499710215553492364_);}
	.st7{fill:url(#SVGID_00000117678671860867460020000000761282971890659491_);}
	.st8{fill:url(#SVGID_00000021812401090007059500000011577645983634320535_);}
	.st9{fill:url(#SVGID_00000011006636521440161500000017219633852922196864_);}
	.st10{fill:#A8E06C;}
	.st11{fill:#3A8E3A;}
</style>
<g class="st0">
	<linearGradient id="SVGID_1_" gradientUnits="userSpaceOnUse" x1="800.8577" y1="668.0707" x2="800.8577" y2="20.7143">
		<stop  offset="0" style="stop-color:#3A8E3A"/>
		<stop  offset="1" style="stop-color:#89DB3A"/>
	</linearGradient>
	<path class="st1" d="M858.2,533.6c-28.4-123.6-15.1-266.6,36.5-387.9c17.9-43,40.6-85,67.8-124.9
		C790,138.3,676.5,324.1,641.8,533.6c-3.1,15.8-3.6,31.8,0.2,48.2C679.7,724,884.5,678.1,858.2,533.6z"/>
	
		<linearGradient id="SVGID_00000152986760601383555130000008980724643385102211_" gradientUnits="userSpaceOnUse" x1="668.0707" y1="699.1425" x2="20.7143" y2="699.1425">
		<stop  offset="0" style="stop-color:#3A8E3A"/>
		<stop  offset="1" style="stop-color:#89DB3A"/>
	</linearGradient>
	<path style="display:inline;fill:url(#SVGID_00000152986760601383555130000008980724643385102211_);" d="M581.8,858.1
		c142.2-37.7,96.4-242.6-48.2-216.3c-123.6,28.4-266.6,15.1-387.9-36.5c-43-17.9-85-40.6-124.9-67.8
		C138.3,710,324.1,823.5,533.6,858.2C549.3,861.3,565.3,861.8,581.8,858.1z"/>
	
		<linearGradient id="SVGID_00000178920031443088100790000015356484156966676106_" gradientUnits="userSpaceOnUse" x1="699.1424" y1="831.9293" x2="699.1424" y2="1479.2858">
		<stop  offset="0" style="stop-color:#3A8E3A"/>
		<stop  offset="1" style="stop-color:#89DB3A"/>
	</linearGradient>
	<path style="display:inline;fill:url(#SVGID_00000178920031443088100790000015356484156966676106_);" d="M641.8,966.4
		c28.4,123.6,15.1,266.6-36.5,387.9c-17.9,43-40.6,85-67.8,124.9c172.4-117.6,285.9-303.4,320.6-512.8c3.1-15.8,3.6-31.8-0.2-48.2
		C820.3,776,615.5,821.9,641.8,966.4z"/>
	
		<linearGradient id="SVGID_00000083086160103681022680000017552391865346254762_" gradientUnits="userSpaceOnUse" x1="831.9293" y1="800.8577" x2="1479.2858" y2="800.8577">
		<stop  offset="0" style="stop-color:#3A8E3A"/>
		<stop  offset="1" style="stop-color:#89DB3A"/>
	</linearGradient>
	<path style="display:inline;fill:url(#SVGID_00000083086160103681022680000017552391865346254762_);" d="M966.4,641.8
		c-15.8-3.1-31.8-3.6-48.2,0.2c-142.2,37.7-96.4,242.6,48.2,216.3c123.6-28.4,266.6-15.1,387.9,36.5c43,17.9,85,40.6,124.9,67.8
		C1361.7,790,1175.9,676.5,966.4,641.8z"/>
</g>
<path class="st5" d="M981.1,569.3c47.3,19.9,101.8-2.3,121.7-49.7c32.7-78.4,104.9-139.5,190.7-165.5
	c-104.8-32-216.6-14.5-313.1,43.1c0,0-11.2,6.7-11.2,6.7C904.6,442.1,911.1,540.3,981.1,569.3z"/>
<path class="st5" d="M403.9,530.8c38.2,64.6,136.5,58.1,165.4-11.9c19.9-47.3-2.3-101.8-49.7-121.7
	c-78.4-32.7-139.5-104.9-165.5-190.7c-32,104.8-14.5,216.6,43.1,313.1C397.2,519.6,403.9,530.8,403.9,530.8z"/>
<path class="st5" d="M518.9,930.7c-47.3-19.9-101.8,2.3-121.7,49.7c-32.7,78.4-104.9,139.5-190.7,165.5
	c104.8,32,216.6,14.5,313.1-43.1c0,0,11.2-6.7,11.2-6.7C595.4,1057.9,588.9,959.7,518.9,930.7z"/>
<path class="st5" d="M1096.1,969.2c-38.2-64.6-136.5-58.1-165.4,11.9c-19.9,47.3,2.3,101.8,49.7,121.7
	c78.4,32.7,139.5,104.9,165.5,190.7c32-104.8,14.5-216.6-43.1-313.1C1102.8,980.4,1096.1,969.2,1096.1,969.2z"/>
<linearGradient id="SVGID_00000111176044328452727980000012028947061497629351_" gradientUnits="userSpaceOnUse" x1="755.8277" y1="465.9012" x2="755.8277" y2="85.7273">
	<stop  offset="0" style="stop-color:#3A8E3A"/>
	<stop  offset="1" style="stop-color:#89DB3A"/>
</linearGradient>
<path style="fill:url(#SVGID_00000111176044328452727980000012028947061497629351_);" d="M785.6,458.8c47.5-19.4,70.4-73.7,51-121.2
	c-32.3-78.6-24.4-172.8,17.8-251.9c-96.7,51.5-163.5,142.9-190.9,251.9c0,0-3.2,12.7-3.2,12.7C641.6,422.9,715.6,487.8,785.6,458.8z
	"/>
<linearGradient id="SVGID_00000176006672544243056710000015529945507020165029_" gradientUnits="userSpaceOnUse" x1="465.9012" y1="744.1724" x2="85.7273" y2="744.1724">
	<stop  offset="0" style="stop-color:#3A8E3A"/>
	<stop  offset="1" style="stop-color:#89DB3A"/>
</linearGradient>
<path style="fill:url(#SVGID_00000176006672544243056710000015529945507020165029_);" d="M350.3,839.7
	c72.7,18.7,137.6-55.4,108.6-125.4c-19.4-47.5-73.7-70.4-121.2-51c-78.6,32.3-172.8,24.4-251.9-17.8
	c51.5,96.7,142.9,163.5,251.9,190.9C337.6,836.6,350.3,839.7,350.3,839.7z"/>
<linearGradient id="SVGID_00000004537427142484537860000001670336478144058270_" gradientUnits="userSpaceOnUse" x1="744.1723" y1="1034.0989" x2="744.1723" y2="1414.2728">
	<stop  offset="0" style="stop-color:#3A8E3A"/>
	<stop  offset="1" style="stop-color:#89DB3A"/>
</linearGradient>
<path style="fill:url(#SVGID_00000004537427142484537860000001670336478144058270_);" d="M714.4,1041.2
	c-47.5,19.4-70.4,73.7-51,121.2c32.3,78.6,24.4,172.8-17.8,251.9c96.7-51.5,163.5-142.9,190.9-251.9c0,0,3.2-12.7,3.2-12.7
	C858.4,1077.1,784.4,1012.2,714.4,1041.2z"/>
<linearGradient id="SVGID_00000088831276050102840920000000015243717161970872_" gradientUnits="userSpaceOnUse" x1="1034.0989" y1="755.8278" x2="1414.2727" y2="755.8278">
	<stop  offset="0" style="stop-color:#3A8E3A"/>
	<stop  offset="1" style="stop-color:#89DB3A"/>
</linearGradient>
<path style="fill:url(#SVGID_00000088831276050102840920000000015243717161970872_);" d="M1149.7,660.3
	c-72.7-18.7-137.6,55.4-108.6,125.4c19.4,47.5,73.7,70.4,121.2,51c78.6-32.3,172.8-24.4,251.9,17.8
	c-51.5-96.7-142.9-163.5-251.9-190.9C1162.4,663.4,1149.7,660.3,1149.7,660.3z"/>
<circle class="st10" cx="750" cy="750" r="256.8"/>
<path class="st11" d="M707.3,614.6L870.7,709c31.5,18.2,31.5,63.7,0,82l-163.5,94.4c-31.5,18.2-71-4.6-71-41V655.6
	C636.3,619.2,675.7,596.4,707.3,614.6z"/>
</svg>
